<svg xmlns="http://www.w3.org/2000/svg" viewBox="0 0 800 480" fill="none" role="img" aria-label="Governed AI operations with human approval checkpoints">
  <defs>
    <radialGradient id="g2" cx="50%" cy="40%" r="65%">
      <stop offset="0%" stop-color="#1d4ed8" stop-opacity="0.3"/>
      <stop offset="100%" stop-color="#020817" stop-opacity="0"/>
    </radialGradient>
    <linearGradient id="shield" x1="0" y1="0" x2="0" y2="1">
      <stop offset="0%" stop-color="#3b82f6"/>
      <stop offset="100%" stop-color="#1e3a8a"/>
    </linearGradient>
  </defs>
  <rect width="800" height="480" fill="#020817"/>
  <rect width="800" height="480" fill="url(#g2)"/>
  <g stroke="#1e40af" stroke-opacity="0.4" stroke-width="1.5">
    <path d="M130 240 H310"/><path d="M490 240 H670"/>
  </g>
  <g font-family="Inter, sans-serif" text-anchor="middle">
    <rect x="60" y="196" width="140" height="88" rx="16" fill="#0b1220" stroke="#3b82f6" stroke-opacity="0.5"/>
    <text x="130" y="234" font-size="13" font-weight="700" fill="#dbeafe">AGENT</text>
    <text x="130" y="254" font-size="13" font-weight="700" fill="#dbeafe">PROPOSAL</text>
    <rect x="600" y="196" width="140" height="88" rx="16" fill="#0b1220" stroke="#22c55e" stroke-opacity="0.6"/>
    <text x="670" y="234" font-size="13" font-weight="700" fill="#bbf7d0">GOVERNED</text>
    <text x="670" y="254" font-size="13" font-weight="700" fill="#bbf7d0">EXECUTION</text>
  </g>
  <g>
    <path d="M400 130 L472 162 V252 C472 316 442 356 400 376 C358 356 328 316 328 252 V162 Z" fill="url(#shield)" stroke="#60a5fa" stroke-width="2.5"/>
    <path d="M368 252 L392 278 L438 220" stroke="#ffffff" stroke-width="10" stroke-linecap="round" stroke-linejoin="round" fill="none"/>
  </g>
  <g font-family="Inter, sans-serif" text-anchor="middle">
    <text x="400" y="112" font-size="12" font-weight="700" fill="#93c5fd" letter-spacing="3">HUMAN APPROVAL CHECKPOINT</text>
    <text x="400" y="416" font-size="11" font-weight="600" fill="#64748b" letter-spacing="2">DENY &gt; REQUIRE APPROVAL &gt; ALLOW</text>
  </g>
  <g font-family="JetBrains Mono, monospace" font-size="10" fill="#475569">
    <text x="72" y="330">policy: fail-closed</text>
    <text x="72" y="348">audit: enabled</text>
    <text x="608" y="330">run-log: signed</text>
    <text x="608" y="348">rollback: ready</text>
  </g>
</svg>
